<?xml version="1.0" standalone="no"?>
<!DOCTYPE svg PUBLIC "-//W3C//DTD SVG 20010904//EN"
 "http://www.w3.org/TR/2001/REC-SVG-20010904/DTD/svg10.dtd">
<svg version="1.0" xmlns="http://www.w3.org/2000/svg"
 width="400.000000pt" height="400.000000pt" viewBox="0 0 400.000000 400.000000"
 preserveAspectRatio="xMidYMid meet">
<metadata>
Created by potrace 1.14, written by Peter Selinger 2001-2017
</metadata>
<g transform="translate(0.000000,400.000000) scale(0.100000,-0.100000)"
fill="#000000" stroke="none">
<path d="M0 2000 l0 -2000 2000 0 2000 0 0 505 0 506 -1646 -1 c-1517 -1
-1647 0 -1664 15 -26 24 -29 53 -35 390 -3 165 -8 327 -10 360 -2 33 -7 200
-11 370 -4 171 -8 326 -9 345 -2 19 -4 125 -5 235 l-2 199 26 23 c24 21 37 23
124 23 53 0 230 3 392 6 283 6 311 5 695 -30 220 -19 436 -38 480 -42 50 -3
88 -12 103 -22 14 -11 47 -74 86 -164 99 -229 227 -442 388 -645 173 -218 365
-352 593 -415 55 -16 115 -21 283 -25 l212 -5 0 1186 0 1186 -2000 0 -2000 0
0 -2000z"/>
<path d="M1045 2899 c-171 -3 -321 -7 -333 -8 l-24 -1 6 -162 c3 -90 8 -257
11 -373 3 -115 7 -280 10 -365 3 -85 7 -249 10 -365 3 -115 8 -285 11 -377 l6
-168 1477 0 c812 0 1545 3 1629 7 l152 6 0 34 0 33 -137 0 c-292 0 -552 28
-751 80 -547 143 -1065 559 -1430 1150 -75 121 -207 377 -242 470 -16 42 -27
50 -60 48 -14 -1 -164 -5 -335 -9z"/>
<path d="M1510 2893 c0 -5 42 -95 94 -199 218 -438 519 -805 871 -1061 273
-198 617 -338 910 -368 33 -4 67 -8 75 -11 26 -7 510 -24 525 -18 12 5 15 33
15 160 l0 154 -117 1 c-248 2 -348 14 -473 55 -152 51 -334 168 -446 285 -193
204 -401 530 -525 824 -23 55 -42 101 -43 102 -3 4 -107 14 -436 43 -190 16
-369 32 -397 36 -29 3 -53 1 -53 -3z"/>
</g>
</svg>
